<?xml version="1.0" encoding="UTF-8"?>
<svg version="1.1" xmlns="http://www.w3.org/2000/svg" width="146" height="87">
<path d="M0 0 C48.18 0 96.36 0 146 0 C146 28.71 146 57.42 146 87 C97.82 87 49.64 87 0 87 C0 58.29 0 29.58 0 0 Z " fill="#FAFBFB" transform="translate(0,0)"/>
<path d="M0 0 C0.65375107 -0.0049649 1.30750214 -0.00992981 1.98106384 -0.01504517 C4.15446002 -0.02970664 6.32778309 -0.0364773 8.5012207 -0.04199219 C10.00999453 -0.04774283 11.51876834 -0.05350057 13.02754211 -0.05926514 C16.19772686 -0.06978813 19.36788617 -0.07562147 22.53808594 -0.07910156 C26.59228154 -0.08457213 30.64613886 -0.10856346 34.70022869 -0.13707352 C37.82042911 -0.15574296 40.94054901 -0.1609079 44.06080055 -0.16243744 C45.55467377 -0.16545762 47.04854579 -0.17346471 48.54236412 -0.18662262 C50.63917667 -0.20376481 52.73517618 -0.20178295 54.83203125 -0.1953125 C56.02370407 -0.19895813 57.21537689 -0.20260376 58.44316101 -0.20635986 C62.865969 0.28671703 66.10258821 1.90354564 69.6105957 4.59863281 C71.5240033 7.24694783 70.90649155 9.42363063 70.46606445 12.53222656 C69.08458023 17.5308227 66.37907554 21.72440275 63.73950195 26.16113281 C57.46950195 26.16113281 51.19950195 26.16113281 44.73950195 26.16113281 C45.72950195 23.68613281 45.72950195 23.68613281 46.73950195 21.16113281 C46.59924997 18.45407769 46.59924997 18.45407769 45.73950195 16.16113281 C42.46634687 14.52455527 38.83327965 14.91805211 35.23168945 14.84472656 C33.97075974 14.81355492 33.97075974 14.81355492 32.68435669 14.78175354 C29.9944896 14.71627842 27.30452353 14.65738262 24.61450195 14.59863281 C22.79287706 14.55544565 20.97126224 14.51183129 19.1496582 14.46777344 C14.67970801 14.36059913 10.20965809 14.25932596 5.73950195 14.16113281 C5.31713257 15.50268433 5.31713257 15.50268433 4.88623047 16.87133789 C3.89943182 19.70231762 2.81012565 22.16844976 1.3918457 24.79785156 C0.95163086 25.62220703 0.51141602 26.4465625 0.05786133 27.29589844 C-0.39782227 28.13830078 -0.85350586 28.98070313 -1.32299805 29.84863281 C-2.23257934 31.53894869 -3.14021849 33.23031149 -4.0456543 34.92285156 C-4.4466333 35.66494873 -4.8476123 36.4070459 -5.26074219 37.17163086 C-6.37979685 39.28001031 -6.37979685 39.28001031 -7.26049805 42.16113281 C3.29950195 42.16113281 13.85950195 42.16113281 24.73950195 42.16113281 C23.74950195 46.78113281 22.75950195 51.40113281 21.73950195 56.16113281 C3.25950195 56.16113281 -15.22049805 56.16113281 -34.26049805 56.16113281 C-32.58441885 51.97093481 -30.72888334 47.98616338 -28.6940918 43.96972656 C-27.97369854 42.53866402 -27.25349061 41.10750817 -26.53344727 39.67626953 C-25.97303741 38.56430206 -25.97303741 38.56430206 -25.40130615 37.42987061 C-23.52128574 33.69105306 -21.65946727 29.94320408 -19.7956543 26.19628906 C-18.68034125 23.95825093 -17.56456432 21.72044452 -16.44873047 19.48266602 C-15.68502849 17.95012765 -14.92203069 16.41723822 -14.15966797 14.8840332 C-13.04017786 12.6330256 -11.91817755 10.38328531 -10.7956543 8.13378906 C-10.45405777 7.44543472 -10.11246124 6.75708038 -9.76051331 6.04786682 C-6.86186705 0.24987807 -6.50728579 0.03741009 0 0 Z " fill="#424ACC" transform="translate(35.260498046875,4.8388671875)"/>
<path d="M0 0 C7.9801118 -0.09284953 15.95999636 -0.16384 23.94051552 -0.20724869 C27.6465735 -0.22808715 31.3522608 -0.25633503 35.05810547 -0.30175781 C38.63725786 -0.34535112 42.21605464 -0.36916523 45.79545212 -0.37950897 C47.15818247 -0.38687635 48.52089427 -0.40126338 49.88347244 -0.42292023 C63.04825526 -0.62376164 63.04825526 -0.62376164 68 4 C67.64643252 14.78380829 62.86459586 22.63508194 55.41796875 30.24609375 C48.29717168 35.41125996 41.71151877 36.5767592 33.05859375 36.390625 C32.05031021 36.38496521 31.04202667 36.37930542 30.00318909 36.37347412 C26.81412264 36.3512609 23.62622114 36.3010928 20.4375 36.25 C18.26238613 36.22991555 16.08725448 36.2116682 13.91210938 36.1953125 C8.60768211 36.1514459 3.30392432 36.08468689 -2 36 C-2.2475 36.845625 -2.495 37.69125 -2.75 38.5625 C-4 42 -4 42 -8 49 C-14.6 49 -21.2 49 -28 49 C-27.34 47.68 -26.68 46.36 -26 45 C-25.44793105 43.50257097 -24.90187937 42.00291417 -24.36083984 40.50146484 C-22.07106442 34.97325577 -19.65524123 29.90297181 -15 26 C-6.41406499 22.82799818 3.41086941 24.12057061 12.375 24.625 C16.10134438 24.75878842 19.826535 24.86550306 23.55435181 24.94833374 C25.86490609 25.0076934 28.17490122 25.10079057 30.48251343 25.2315979 C36.7218739 25.54141698 36.7218739 25.54141698 42.18212891 22.81005859 C44.35220919 19.83342425 44.35220919 19.83342425 45 15 C27.84 14.67 10.68 14.34 -7 14 C-5.58843021 10.47107553 -4.22615467 7.45137797 -2.375 4.1875 C-1.92898437 3.39730469 -1.48296875 2.60710938 -1.0234375 1.79296875 C-0.68570313 1.20128906 -0.34796875 0.60960937 0 0 Z " fill="#2AB352" transform="translate(74,35)"/>
<path d="M0 0 C0.70125 0.2475 1.4025 0.495 2.125 0.75 C1.465 1.41 0.805 2.07 0.125 2.75 C2.105 3.41 4.085 4.07 6.125 4.75 C3.5060335 7.3689665 0.47754361 8.50694675 -2.875 9.9375 C-3.51695313 10.22302734 -4.15890625 10.50855469 -4.8203125 10.80273438 C-6.47911159 11.51587917 -8.17563023 12.13980963 -9.875 12.75 C-10.535 12.42 -11.195 12.09 -11.875 11.75 C-11.070625 11.13125 -10.26625 10.5125 -9.4375 9.875 C-6.83625481 8.00835959 -6.83625481 8.00835959 -5.875 5.75 C-6.865 5.75 -7.855 5.75 -8.875 5.75 C-8.875 5.09 -8.875 4.43 -8.875 3.75 C-3.85592031 -0.33529742 -3.85592031 -0.33529742 0 0 Z " fill="#FCE517" transform="translate(57.875,26.25)"/>
</svg>
